<?xml version="1.0" encoding="UTF-8" standalone="no"?>
<!-- Generator: Adobe Illustrator 19.0.0, SVG Export Plug-In . SVG Version: 6.00 Build 0)  -->

<svg
   xmlns:dc="http://purl.org/dc/elements/1.1/"
   xmlns:cc="http://creativecommons.org/ns#"
   xmlns:rdf="http://www.w3.org/1999/02/22-rdf-syntax-ns#"
   xmlns:svg="http://www.w3.org/2000/svg"
   xmlns="http://www.w3.org/2000/svg"
   xmlns:sodipodi="http://sodipodi.sourceforge.net/DTD/sodipodi-0.dtd"
   xmlns:inkscape="http://www.inkscape.org/namespaces/inkscape"
   version="1.1"
   id="Capa_1"
   x="0px"
   y="0px"
   viewBox="0 0 512 512"
   style="enable-background:new 0 0 512 512;"
   xml:space="preserve"
   sodipodi:docname="seo.svg"
   inkscape:version="0.92.4 (5da689c313, 2019-01-14)"><metadata
   id="metadata97"><rdf:RDF><cc:Work
       rdf:about=""><dc:format>image/svg+xml</dc:format><dc:type
         rdf:resource="http://purl.org/dc/dcmitype/StillImage" /><dc:title></dc:title></cc:Work></rdf:RDF></metadata><defs
   id="defs95" /><sodipodi:namedview
   pagecolor="#ffffff"
   bordercolor="#666666"
   borderopacity="1"
   objecttolerance="10"
   gridtolerance="10"
   guidetolerance="10"
   inkscape:pageopacity="0"
   inkscape:pageshadow="2"
   inkscape:window-width="1920"
   inkscape:window-height="1001"
   id="namedview93"
   showgrid="false"
   inkscape:zoom="0.4609375"
   inkscape:cx="-119.32203"
   inkscape:cy="256"
   inkscape:window-x="-9"
   inkscape:window-y="-9"
   inkscape:window-maximized="1"
   inkscape:current-layer="Capa_1" />
<g
   id="g6"
   transform="matrix(0.79237289,0,0,0.79237289,52.067796,56.406778)">
	<g
   id="g4">
		<path
   d="m 477.083,440.502 c 19.253,0 34.917,-15.664 34.917,-34.918 V 50 C 512,22.43 489.57,0 462,0 H 50 C 22.43,0 0,22.43 0,50 v 355.584 c 0,19.254 15.664,34.918 34.917,34.918 H 46 V 492 H 10 c -5.523,0 -10,4.478 -10,10 0,5.522 4.477,10 10,10 h 492 c 5.523,0 10,-4.478 10,-10 0,-5.522 -4.477,-10 -10,-10 H 466 V 440.502 Z M 20,50 C 20,33.458 33.458,20 50,20 h 412 c 16.542,0 30,13.458 30,30 V 72 H 21.004 C 20.665,72 20.33,72.018 20,72.051 Z m 90,442 H 66 v -90 h 44 z m 112,0 H 178 V 291.432 h 44 z m 112,0 H 290 V 376 h 44 z M 456,256.5 h -64 c -5.523,0 -10,4.478 -10,10 v 50.499 c 0,5.522 4.477,10 10,10 5.523,0 10,-4.478 10,-10 V 276.5 h 44 V 492 H 402 V 384.25 c 0,-5.522 -4.477,-10 -10,-10 -5.523,0 -10,4.478 -10,10 V 492 H 354 V 366 c 0,-5.522 -4.477,-10 -10,-10 h -64 c -5.523,0 -10,4.478 -10,10 V 492 H 242 V 281.432 c 0,-5.522 -4.477,-10 -10,-10 h -64 c -5.523,0 -10,4.478 -10,10 V 492 H 130 V 392 c 0,-5.522 -4.477,-10 -10,-10 H 56 c -5.523,0 -10,4.478 -10,10 v 28.502 H 34.917 C 26.691,420.502 20,413.81 20,405.584 V 91.949 C 20.33,91.982 20.665,92 21.004,92 H 492 v 313.584 c 0,8.226 -6.692,14.918 -14.917,14.918 H 466 V 266.5 c 0,-5.522 -4.477,-10 -10,-10 z"
   id="path2"
   inkscape:connector-curvature="0" />
	</g>
</g>
<g
   id="g12"
   transform="matrix(0.79237289,0,0,0.79237289,52.067796,56.406778)">
	<g
   id="g10">
		<path
   d="M 448,36 H 222.065 c -5.523,0 -10,4.478 -10,10 0,5.522 4.477,10 10,10 H 448 c 5.523,0 10,-4.478 10,-10 0,-5.522 -4.477,-10 -10,-10 z"
   id="path8"
   inkscape:connector-curvature="0" />
	</g>
</g>
<g
   id="g18"
   transform="matrix(0.79237289,0,0,0.79237289,52.067796,56.406778)">
	<g
   id="g16">
		<path
   d="M 111.07,38.93 C 109.21,37.07 106.63,36 104,36 101.37,36 98.79,37.069 96.93,38.93 95.07,40.79 94,43.37 94,46 c 0,2.63 1.07,5.21 2.93,7.069 1.86,1.861 4.44,2.931 7.07,2.931 2.63,0 5.21,-1.07 7.07,-2.931 C 112.93,51.21 114,48.63 114,46 c 0,-2.63 -1.07,-5.21 -2.93,-7.07 z"
   id="path14"
   inkscape:connector-curvature="0" />
	</g>
</g>
<g
   id="g24"
   transform="matrix(0.79237289,0,0,0.79237289,52.067796,56.406778)">
	<g
   id="g22">
		<path
   d="M 71.07,38.93 C 69.21,37.07 66.63,36 64,36 61.37,36 58.79,37.069 56.93,38.93 55.07,40.79 54,43.37 54,46 c 0,2.63 1.07,5.21 2.93,7.069 C 58.79,54.93 61.37,56 64,56 66.63,56 69.21,54.93 71.07,53.069 72.93,51.21 74,48.63 74,46 74,43.37 72.93,40.79 71.07,38.93 Z"
   id="path20"
   inkscape:connector-curvature="0" />
	</g>
</g>
<g
   id="g30"
   transform="matrix(0.79237289,0,0,0.79237289,52.067796,56.406778)">
	<g
   id="g28">
		<path
   d="M 151.07,38.93 C 149.21,37.07 146.64,36 144,36 c -2.63,0 -5.21,1.069 -7.07,2.93 -1.86,1.86 -2.93,4.44 -2.93,7.07 0,2.63 1.07,5.21 2.93,7.069 1.86,1.861 4.44,2.931 7.07,2.931 2.63,0 5.21,-1.07 7.07,-2.931 C 152.93,51.21 154,48.63 154,46 c 0,-2.63 -1.07,-5.21 -2.93,-7.07 z"
   id="path26"
   inkscape:connector-curvature="0" />
	</g>
</g>
<g
   id="g36"
   transform="matrix(0.79237289,0,0,0.79237289,52.067796,56.406778)">
	<g
   id="g34">
		<path
   d="m 399.07,345.57 c -1.86,-1.87 -4.44,-2.93 -7.07,-2.93 -2.63,0 -5.21,1.061 -7.07,2.93 -1.86,1.86 -2.93,4.44 -2.93,7.07 0,2.63 1.07,5.21 2.93,7.07 1.86,1.859 4.44,2.93 7.07,2.93 2.63,0 5.21,-1.07 7.07,-2.93 1.86,-1.86 2.93,-4.44 2.93,-7.07 0,-2.64 -1.07,-5.21 -2.93,-7.07 z"
   id="path32"
   inkscape:connector-curvature="0" />
	</g>
</g>
<g
   id="g42"
   transform="matrix(0.79237289,0,0,0.79237289,52.067796,56.406778)">
	<g
   id="g40">
		<path
   d="m 424,135.939 c -19.851,0 -36,16.149 -36,36 0,7.885 2.555,15.181 6.871,21.118 l -66.425,66.425 c -5.155,-2.853 -11.077,-4.483 -17.375,-4.483 -5.675,0 -11.045,1.325 -15.824,3.674 l -69.359,-69.359 c 2.853,-5.155 4.483,-11.077 4.483,-17.375 0,-19.851 -16.149,-36 -36,-36 -19.851,0 -36,16.149 -36,36 0,6.938 1.978,13.42 5.392,18.922 l -59.053,59.052 c -5.155,-2.853 -11.077,-4.483 -17.374,-4.483 -19.851,0 -36,16.149 -36,36 0,19.851 16.149,36 36,36 19.851,0 36,-16.149 36,-36 0,-6.298 -1.63,-12.22 -4.483,-17.375 l 59.758,-59.758 c 4.763,2.329 10.111,3.641 15.76,3.641 6.297,0 12.219,-1.63 17.374,-4.483 l 68.68,68.679 c -3.391,5.49 -5.354,11.95 -5.354,18.863 0,19.851 16.149,36 36,36 19.851,0 36,-16.149 36,-36 0,-6.298 -1.63,-12.22 -4.483,-17.375 l 68.205,-68.205 c 4.093,1.622 8.546,2.522 13.207,2.522 19.851,0 36,-16.149 36,-36 0,-19.851 -16.149,-36 -36,-36 z M 87.337,297.432 c -8.822,0 -16,-7.178 -16,-16 0,-8.822 7.178,-16 16,-16 8.822,0 16,7.178 16,16 0,8.822 -7.178,16 -16,16 z M 194.372,187.939 c -8.822,0 -16,-7.178 -16,-16 0,-8.822 7.178,-16 16,-16 8.822,0 16,7.178 16,16 0,8.822 -7.178,16 -16,16 z m 116.7,119.06 c -8.822,0 -16,-7.178 -16,-16 0,-8.822 7.178,-16 16,-16 8.822,0 16,7.178 16,16 0,8.822 -7.178,16 -16,16 z M 424,187.939 c -8.822,0 -16,-7.178 -16,-16 0,-8.822 7.178,-16 16,-16 8.822,0 16,7.178 16,16 0,8.822 -7.178,16 -16,16 z"
   id="path38"
   inkscape:connector-curvature="0" />
	</g>
</g>
<g
   id="g48"
   transform="matrix(0.79237289,0,0,0.79237289,52.067796,56.406778)">
	<g
   id="g46">
		<path
   d="m 148.33,128.951 c -1.87,-1.86 -4.44,-2.931 -7.07,-2.931 -2.64,0 -5.22,1.07 -7.08,2.931 -1.86,1.859 -2.92,4.439 -2.92,7.069 0,2.63 1.06,5.21 2.92,7.07 1.87,1.86 4.44,2.93 7.08,2.93 2.63,0 5.2,-1.069 7.07,-2.93 1.86,-1.86 2.93,-4.44 2.93,-7.07 0,-2.63 -1.07,-5.21 -2.93,-7.069 z"
   id="path44"
   inkscape:connector-curvature="0" />
	</g>
</g>
<g
   id="g54"
   transform="matrix(0.79237289,0,0,0.79237289,52.067796,56.406778)">
	<g
   id="g52">
		<path
   d="M 104,126.021 H 56 c -5.523,0 -10,4.478 -10,10 0,5.522 4.477,10 10,10 h 48 c 5.523,0 10,-4.478 10,-10 0,-5.522 -4.477,-10 -10,-10 z"
   id="path50"
   inkscape:connector-curvature="0" />
	</g>
</g>
<g
   id="g60"
   transform="matrix(0.79237289,0,0,0.79237289,52.067796,56.406778)">
	<g
   id="g58">
		<path
   d="M 104,174.021 H 56 c -5.523,0 -10,4.478 -10,10 0,5.522 4.477,10 10,10 h 48 c 5.523,0 10,-4.478 10,-10 0,-5.522 -4.477,-10 -10,-10 z"
   id="path56"
   inkscape:connector-curvature="0" />
	</g>
</g>
<g
   id="g62">
</g>
<g
   id="g64">
</g>
<g
   id="g66">
</g>
<g
   id="g68">
</g>
<g
   id="g70">
</g>
<g
   id="g72">
</g>
<g
   id="g74">
</g>
<g
   id="g76">
</g>
<g
   id="g78">
</g>
<g
   id="g80">
</g>
<g
   id="g82">
</g>
<g
   id="g84">
</g>
<g
   id="g86">
</g>
<g
   id="g88">
</g>
<g
   id="g90">
</g>
</svg>