<svg version="1.1" id="Capa_1" xmlns="http://www.w3.org/2000/svg" xmlns:xlink="http://www.w3.org/1999/xlink" x="0px" y="0px"
	 viewBox="0 0 512 512" style="enable-background:new 0 0 512 512;" xml:space="preserve">
<g>
	<g>
		<path d="M473.6,0H38.4C17.229,0,0,17.229,0,38.4v435.2C0,494.771,17.229,512,38.4,512h435.2c21.171,0,38.4-17.229,38.4-38.4V38.4
			C512,17.229,494.771,0,473.6,0z M494.933,473.6c0,11.767-9.566,21.333-21.333,21.333H38.4c-11.759,0-21.333-9.566-21.333-21.333
			V38.4c0-11.768,9.574-21.333,21.333-21.333h435.2c11.759,0,21.333,9.566,21.333,21.333V473.6z"/>
	</g>
</g>
<g>
	<g>
		<path d="M76.8,34.133H42.667c-4.71,0-8.533,3.814-8.533,8.533V76.8c0,4.719,3.823,8.533,8.533,8.533H76.8
			c4.71,0,8.533-3.814,8.533-8.533V42.667C85.333,37.948,81.51,34.133,76.8,34.133z M68.267,68.267H51.2V51.2h17.067V68.267z"/>
	</g>
</g>
<g>
	<g>
		<path d="M145.067,34.133h-34.133c-4.71,0-8.533,3.814-8.533,8.533V76.8c0,4.719,3.823,8.533,8.533,8.533h34.133
			c4.71,0,8.533-3.814,8.533-8.533V42.667C153.6,37.948,149.777,34.133,145.067,34.133z M136.533,68.267h-17.067V51.2h17.067V68.267
			z"/>
	</g>
</g>
<g>
	<g>
		<path d="M213.333,34.133H179.2c-4.71,0-8.533,3.814-8.533,8.533V76.8c0,4.719,3.823,8.533,8.533,8.533h34.133
			c4.71,0,8.533-3.814,8.533-8.533V42.667C221.867,37.948,218.044,34.133,213.333,34.133z M204.8,68.267h-17.067V51.2H204.8V68.267z
			"/>
	</g>
</g>
<g>
	<g>
		<path d="M473.6,0H38.4C17.229,0,0,17.229,0,38.4v72.533c0,4.719,3.823,8.533,8.533,8.533h494.933c4.71,0,8.533-3.814,8.533-8.533
			V38.4C512,17.229,494.771,0,473.6,0z M494.933,102.4H17.067v-64c0-11.768,9.574-21.333,21.333-21.333h435.2
			c11.759,0,21.333,9.566,21.333,21.333V102.4z"/>
	</g>
</g>
<g>
	<g>
		<path d="M315.733,230.4H196.267c-14.114,0-25.6,11.486-25.6,25.6s11.486,25.6,25.6,25.6h119.467c14.114,0,25.6-11.486,25.6-25.6
			S329.847,230.4,315.733,230.4z M315.733,264.533H196.267c-4.71,0-8.533-3.823-8.533-8.533s3.823-8.533,8.533-8.533h119.467
			c4.71,0,8.533,3.823,8.533,8.533S320.444,264.533,315.733,264.533z"/>
	</g>
</g>
<g>
	<g>
		<path d="M341.333,153.6H170.667c-4.71,0-8.533,3.814-8.533,8.533s3.823,8.533,8.533,8.533h170.667c4.71,0,8.533-3.814,8.533-8.533
			S346.044,153.6,341.333,153.6z"/>
	</g>
</g>
<g>
	<g>
		<path d="M384,187.733H128c-4.71,0-8.533,3.814-8.533,8.533S123.29,204.8,128,204.8h256c4.71,0,8.533-3.814,8.533-8.533
			S388.71,187.733,384,187.733z"/>
	</g>
</g>
<g>
	<g>
		<path d="M128,418.133H51.2c-4.71,0-8.533,3.814-8.533,8.533S46.49,435.2,51.2,435.2H128c4.71,0,8.533-3.814,8.533-8.533
			S132.71,418.133,128,418.133z"/>
	</g>
</g>
<g>
	<g>
		<path d="M102.4,452.267H51.2c-4.71,0-8.533,3.814-8.533,8.533c0,4.719,3.823,8.533,8.533,8.533h51.2
			c4.71,0,8.533-3.814,8.533-8.533C110.933,456.081,107.11,452.267,102.4,452.267z"/>
	</g>
</g>
<g>
	<g>
		<path d="M128,384H51.2c-4.71,0-8.533,3.814-8.533,8.533c0,4.719,3.823,8.533,8.533,8.533H128c4.71,0,8.533-3.814,8.533-8.533
			C136.533,387.814,132.71,384,128,384z"/>
	</g>
</g>
<g>
	<g>
		<path d="M128,349.867H51.2c-4.71,0-8.533,3.814-8.533,8.533s3.823,8.533,8.533,8.533H128c4.71,0,8.533-3.814,8.533-8.533
			S132.71,349.867,128,349.867z"/>
	</g>
</g>
<g>
	<g>
		<path d="M238.933,418.133h-76.8c-4.71,0-8.533,3.814-8.533,8.533s3.823,8.533,8.533,8.533h76.8c4.71,0,8.533-3.814,8.533-8.533
			S243.644,418.133,238.933,418.133z"/>
	</g>
</g>
<g>
	<g>
		<path d="M213.333,452.267h-51.2c-4.71,0-8.533,3.814-8.533,8.533c0,4.719,3.823,8.533,8.533,8.533h51.2
			c4.71,0,8.533-3.814,8.533-8.533C221.867,456.081,218.044,452.267,213.333,452.267z"/>
	</g>
</g>
<g>
	<g>
		<path d="M238.933,384h-76.8c-4.71,0-8.533,3.814-8.533,8.533c0,4.719,3.823,8.533,8.533,8.533h76.8
			c4.71,0,8.533-3.814,8.533-8.533C247.467,387.814,243.644,384,238.933,384z"/>
	</g>
</g>
<g>
	<g>
		<path d="M238.933,349.867h-76.8c-4.71,0-8.533,3.814-8.533,8.533s3.823,8.533,8.533,8.533h76.8c4.71,0,8.533-3.814,8.533-8.533
			S243.644,349.867,238.933,349.867z"/>
	</g>
</g>
<g>
	<g>
		<path d="M349.867,418.133h-76.8c-4.71,0-8.533,3.814-8.533,8.533s3.823,8.533,8.533,8.533h76.8c4.71,0,8.533-3.814,8.533-8.533
			S354.577,418.133,349.867,418.133z"/>
	</g>
</g>
<g>
	<g>
		<path d="M324.267,452.267h-51.2c-4.71,0-8.533,3.814-8.533,8.533c0,4.719,3.823,8.533,8.533,8.533h51.2
			c4.71,0,8.533-3.814,8.533-8.533C332.8,456.081,328.977,452.267,324.267,452.267z"/>
	</g>
</g>
<g>
	<g>
		<path d="M349.867,384h-76.8c-4.71,0-8.533,3.814-8.533,8.533c0,4.719,3.823,8.533,8.533,8.533h76.8
			c4.71,0,8.533-3.814,8.533-8.533C358.4,387.814,354.577,384,349.867,384z"/>
	</g>
</g>
<g>
	<g>
		<path d="M349.867,349.867h-76.8c-4.71,0-8.533,3.814-8.533,8.533s3.823,8.533,8.533,8.533h76.8c4.71,0,8.533-3.814,8.533-8.533
			S354.577,349.867,349.867,349.867z"/>
	</g>
</g>
<g>
	<g>
		<path d="M460.8,418.133H384c-4.71,0-8.533,3.814-8.533,8.533S379.29,435.2,384,435.2h76.8c4.71,0,8.533-3.814,8.533-8.533
			S465.51,418.133,460.8,418.133z"/>
	</g>
</g>
<g>
	<g>
		<path d="M435.2,452.267H384c-4.71,0-8.533,3.814-8.533,8.533c0,4.719,3.823,8.533,8.533,8.533h51.2
			c4.71,0,8.533-3.814,8.533-8.533C443.733,456.081,439.91,452.267,435.2,452.267z"/>
	</g>
</g>
<g>
	<g>
		<path d="M460.8,384H384c-4.71,0-8.533,3.814-8.533,8.533c0,4.719,3.823,8.533,8.533,8.533h76.8c4.71,0,8.533-3.814,8.533-8.533
			C469.333,387.814,465.51,384,460.8,384z"/>
	</g>
</g>
<g>
	<g>
		<path d="M460.8,349.867H384c-4.71,0-8.533,3.814-8.533,8.533s3.823,8.533,8.533,8.533h76.8c4.71,0,8.533-3.814,8.533-8.533
			S465.51,349.867,460.8,349.867z"/>
	</g>
</g>
<g>
	<g>
		<path d="M128,315.733H51.2c-4.71,0-8.533,3.814-8.533,8.533c0,4.719,3.823,8.533,8.533,8.533H128c4.71,0,8.533-3.814,8.533-8.533
			C136.533,319.548,132.71,315.733,128,315.733z"/>
	</g>
</g>
<g>
	<g>
		<path d="M238.933,315.733h-76.8c-4.71,0-8.533,3.814-8.533,8.533c0,4.719,3.823,8.533,8.533,8.533h76.8
			c4.71,0,8.533-3.814,8.533-8.533C247.467,319.548,243.644,315.733,238.933,315.733z"/>
	</g>
</g>
<g>
	<g>
		<path d="M349.867,315.733h-76.8c-4.71,0-8.533,3.814-8.533,8.533c0,4.719,3.823,8.533,8.533,8.533h76.8
			c4.71,0,8.533-3.814,8.533-8.533C358.4,319.548,354.577,315.733,349.867,315.733z"/>
	</g>
</g>
<g>
	<g>
		<path d="M460.8,315.733H384c-4.71,0-8.533,3.814-8.533,8.533c0,4.719,3.823,8.533,8.533,8.533h76.8
			c4.71,0,8.533-3.814,8.533-8.533C469.333,319.548,465.51,315.733,460.8,315.733z"/>
	</g>
</g>
</svg>
